<svg width="31" height="31" viewBox="0 0 31 31" fill="none" xmlns="http://www.w3.org/2000/svg">
    <path d="M15.4667 0C6.92466 0 0 6.92466 0 15.4667C0 24.0087 6.92466 30.9333 15.4667 30.9333C24.0087 30.9333 30.9333 24.0087 30.9333 15.4667C30.9333 6.92466 24.0087 0 15.4667 0ZM23.5056 9.78363L20.7586 22.8979C20.7254 23.0565 20.6528 23.2043 20.5476 23.3275C20.4424 23.4508 20.3079 23.5456 20.1564 23.6033C20.005 23.661 19.8415 23.6797 19.6809 23.6577C19.5203 23.6358 19.3679 23.5738 19.2375 23.4775L15.2418 20.5255L12.821 22.8092C12.7893 22.8391 12.752 22.8624 12.7112 22.8777C12.6704 22.893 12.627 22.9001 12.5835 22.8984C12.54 22.8968 12.4972 22.8864 12.4577 22.8681C12.4182 22.8497 12.3827 22.8237 12.3534 22.7915L12.3014 22.7343L12.722 18.6637L20.3033 11.7369C20.3408 11.7027 20.3641 11.6557 20.3687 11.6052C20.3732 11.5546 20.3586 11.5042 20.3278 11.4639C20.297 11.4235 20.2522 11.3962 20.2023 11.3873C20.1523 11.3784 20.1008 11.3885 20.058 11.4157L10.3624 17.5522L6.18667 16.1498C6.07564 16.1125 5.97887 16.0418 5.90964 15.9473C5.8404 15.8528 5.8021 15.7392 5.79998 15.6221C5.79787 15.505 5.83204 15.3901 5.89781 15.2932C5.96358 15.1963 6.05772 15.1221 6.16733 15.0808L22.5052 8.9262C22.6312 8.87877 22.7677 8.86607 22.9003 8.88943C23.0329 8.91279 23.1568 8.97134 23.2591 9.05897C23.3613 9.1466 23.4381 9.26008 23.4815 9.38756C23.5249 9.51504 23.5332 9.65183 23.5056 9.78363Z" fill="#6EA06A"/>
</svg>
