<svg width="32" height="32" viewBox="0 0 32 32" fill="none" xmlns="http://www.w3.org/2000/svg">
    <path d="M20.7314 32H11.2686C2.31657 32 0 29.6834 0 20.7314V11.2686C0 2.31657 2.31657 0 11.2686 0H20.7303C29.6834 0 32 2.31657 32 11.2686V20.7314C32 29.6834 29.6834 32 20.7314 32ZM11.2686 1.14286C2.94057 1.14286 1.14286 2.94057 1.14286 11.2686V20.7314C1.14286 29.0594 2.94057 30.8571 11.2686 30.8571H20.7303C29.0583 30.8571 30.856 29.0594 30.856 20.7314V11.2686C30.8571 2.94057 29.0594 1.14286 20.7314 1.14286H11.2686Z" fill="#6EA06A"/>
    <path d="M26.3098 24H23.8089C22.8831 24 22.4191 23.4724 21.6475 22.599C21.3435 22.2554 20.9709 21.8327 20.476 21.3273C19.1112 19.9868 18.5329 19.8517 18.3203 19.8517C18.3123 19.9088 18.3054 19.9996 18.3054 20.1417V22.4266C18.3054 23.7321 17.3636 24 15.9474 24C12.9802 24 9.95353 22.1634 7.85042 19.0877C4.82148 14.7613 3.80078 11.2442 3.80078 10.3043C3.80078 9.47632 4.32199 9.00116 5.22953 9.00116H7.7304C8.82768 9.00116 9.16258 9.71506 9.39003 10.3835C10.5159 13.7271 12.1755 16.2182 12.8659 16.7155C12.8716 16.6398 12.8762 16.5396 12.8762 16.4045V12.6522C12.8293 11.8032 12.5527 11.4538 12.3081 11.1464C12.1081 10.8948 11.8818 10.6095 11.8818 10.1693C11.8818 9.60792 12.3435 9.00116 13.0899 9.00116H17.0195C17.607 9.00116 18.3054 9.26436 18.3054 10.5198V15.5683C18.3054 15.5916 18.3065 15.6126 18.3077 15.6324C18.4369 15.5415 18.6209 15.3703 18.8849 15.1025C20.5754 13.1751 21.8213 10.1134 21.8338 10.0819C22.1322 9.37151 22.6899 9 23.4512 9H25.9521C26.4927 9 26.887 9.16537 27.1236 9.48913C27.2814 9.70458 27.4322 10.0877 27.2562 10.6863C26.9339 12.1991 24.1278 16.2566 23.8078 16.7143C23.7838 16.755 23.6866 16.9158 23.6741 16.9705C23.6775 16.9705 23.6981 17.0276 23.7929 17.1533C23.9084 17.3152 24.193 17.5994 24.4684 17.8754C24.8091 18.2155 25.1942 18.6009 25.5006 18.9701C26.8493 20.5155 27.4928 21.4414 27.718 22.1541C27.9054 22.8133 27.7397 23.2279 27.566 23.462C27.3888 23.7089 27.0253 24 26.3098 24ZM18.3888 18.6859C18.9055 18.6859 19.653 18.9014 21.2761 20.4957C21.7973 21.0268 22.1836 21.4635 22.4979 21.8199C23.2454 22.6689 23.4272 22.8354 23.8078 22.8354H26.3087C26.5453 22.8354 26.6413 22.7807 26.6539 22.7655C26.6539 22.7655 26.6824 22.6945 26.6264 22.4977C26.4161 21.8315 25.4537 20.6704 24.6387 19.7352C24.345 19.3812 23.9872 19.0248 23.6695 18.7092C23.3163 18.3575 23.0386 18.0792 22.8797 17.8533C22.3105 17.1068 22.5333 16.6048 22.8591 16.0714C23.7061 14.8533 25.9098 11.519 26.1509 10.3975C26.1841 10.2787 26.1921 10.2135 26.1921 10.1821C26.1715 10.1844 26.0949 10.1669 25.9521 10.1669H23.4512C23.1094 10.1669 22.986 10.302 22.8888 10.5338C22.8385 10.6584 21.5607 13.8016 19.7159 15.9037C19.1284 16.5035 18.7135 16.8808 18.1237 16.8808C17.6608 16.8808 17.1624 16.4697 17.1624 15.5695V10.521C17.1624 10.2974 17.1361 10.203 17.1235 10.1704C17.111 10.1751 17.0801 10.1681 17.0195 10.1669H13.0899C13.0339 10.2112 13.1322 10.3346 13.1974 10.4161C13.498 10.7946 13.9506 11.3665 14.0192 12.6219L14.0203 16.4068C14.0203 16.8715 14.0203 17.9616 12.9848 17.9616C11.5183 17.9616 9.32831 13.7818 8.31105 10.7655C8.10759 10.1681 8.01272 10.1681 7.73155 10.1681H5.23067C5.00664 10.1681 4.94035 10.2123 4.94035 10.2123C4.94492 10.7143 5.65358 13.9437 8.78539 18.4181C10.6782 21.1863 13.3539 22.8366 15.9485 22.8366C17.1636 22.8366 17.1636 22.6654 17.1636 22.4278V20.1429C17.1636 19.422 17.3087 18.6859 18.3888 18.6859Z" fill="#6EA06A"/>
</svg>
