<svg width="45" height="32" viewBox="0 0 45 32" fill="none" xmlns="http://www.w3.org/2000/svg">
    <path d="M29.1536 32H15.8464C3.25768 32 0 29.6834 0 20.7314V11.2686C0 2.31657 3.25768 0 15.8464 0H29.152C41.7423 0 45 2.31657 45 11.2686V20.7314C45 29.6834 41.7423 32 29.1536 32ZM15.8464 1.14286C4.13518 1.14286 1.60714 2.94057 1.60714 11.2686V20.7314C1.60714 29.0594 4.13518 30.8571 15.8464 30.8571H29.152C40.8632 30.8571 43.3913 29.0594 43.3913 20.7314V11.2686C43.3929 2.94057 40.8648 1.14286 29.1536 1.14286H15.8464Z" fill="#6EA06A"/>
    <circle cx="23" cy="16" r="7" fill="#6EA06A"/>
    <path d="M25.7088 15.6614C26.3159 16.0557 26.3159 16.9443 25.7088 17.3386L22.5447 19.3938C21.8794 19.8259 21 19.3485 21 18.5552V14.4448C21 13.6515 21.8794 13.1741 22.5447 13.6062L25.7088 15.6614Z" fill="#D9D9D9"/>
</svg>
