<?xml version="1.0"?>
<svg width="256" height="256" xmlns="http://www.w3.org/2000/svg" xmlns:svg="http://www.w3.org/2000/svg">
 <g class="layer">
  <title>Layer 1</title>
  <path d="m233.34,194.09l-87.46,-151.87a20.75,20.75 0 0 0 -35.76,0l-87.46,151.87a19.52,19.52 0 0 0 0,19.71a20.36,20.36 0 0 0 17.88,10.2l174.92,0a20.36,20.36 0 0 0 17.86,-10.2a19.52,19.52 0 0 0 0.02,-19.71m-6.94,15.71a12.47,12.47 0 0 1 -10.94,6.2l-174.92,0a12.47,12.47 0 0 1 -10.94,-6.2a11.45,11.45 0 0 1 0,-11.72l87.45,-151.87a12.76,12.76 0 0 1 21.9,0l87.45,151.87a11.45,11.45 0 0 1 0,11.72" fill="#144311" id="svg_1"/>
 </g>
</svg>