<?xml version="1.0" encoding="UTF-8"?>
<!DOCTYPE svg PUBLIC "-//W3C//DTD SVG 1.1//EN" "http://www.w3.org/Graphics/SVG/1.1/DTD/svg11.dtd">
<svg xmlns="http://www.w3.org/2000/svg" version="1.1" width="557px" height="521px" style="shape-rendering:geometricPrecision; text-rendering:geometricPrecision; image-rendering:optimizeQuality; fill-rule:evenodd; clip-rule:evenodd" xmlns:xlink="http://www.w3.org/1999/xlink">
<g><path style="opacity:0.173" fill="#e5f7ec" d="M 450.5,54.5 C 450.5,54.8333 450.5,55.1667 450.5,55.5C 449.5,55.5 448.5,55.5 447.5,55.5C 443.316,52.5782 438.649,50.4115 433.5,49C 427.546,47.4522 421.546,46.1189 415.5,45C 396.867,43.002 378.2,41.3353 359.5,40C 303.499,38.0952 247.499,38.0952 191.5,40C 173.961,40.9884 156.628,42.4884 139.5,44.5C 125.124,45.3047 111.458,48.638 98.5,54.5C 98.5858,53.5041 98.2524,52.6708 97.5,52C 99.0187,52.3308 100.352,52.1641 101.5,51.5C 102.492,51.6716 103.158,51.3382 103.5,50.5C 105.403,50.2041 107.07,49.5375 108.5,48.5C 116.712,46.1976 125.045,44.3643 133.5,43C 225.656,34.551 317.822,34.3844 410,42.5C 412.54,42.1042 415.04,41.9375 417.5,42C 416.833,42.3333 416.167,42.6667 415.5,43C 423.471,44.7695 431.304,46.9362 439,49.5C 439.604,47.3143 440.77,47.1476 442.5,49C 441.833,49.3333 441.167,49.6667 440.5,50C 443.978,51.2401 447.311,52.7401 450.5,54.5 Z"/></g>
<g><path style="opacity:0.004" fill="#fefffe" d="M 112.5,45.5 C 113.833,46.1667 113.833,46.1667 112.5,45.5 Z"/></g>
<g><path style="opacity:0.996" fill="#49a166" d="M 447.5,55.5 C 444.972,54.9886 442.472,54.3219 440,53.5C 436.957,53.499 436.79,54.3324 439.5,56C 436.833,56.6667 434.167,56.6667 431.5,56C 428.097,54.373 424.43,52.0397 420.5,49C 417.8,48.7468 415.133,48.7468 412.5,49C 412.167,48.6667 411.833,48.3333 411.5,48C 413.5,47.6667 415.5,47.3333 417.5,47C 387.833,43.456 357.833,41.7893 327.5,42C 338.379,43.2086 349.212,44.7086 360,46.5C 363.035,46.391 365.869,45.7243 368.5,44.5C 370.854,45.0601 373.187,45.7267 375.5,46.5C 375.262,48.4783 373.929,50.1449 371.5,51.5C 374.212,52.2281 376.879,53.0615 379.5,54C 386.575,53.8667 393.242,54.7001 399.5,56.5C 373.203,54.5414 346.869,53.208 320.5,52.5C 284.165,52.3333 247.832,52.5 211.5,53C 187.435,53.7685 163.435,55.4352 139.5,58C 105.437,62.399 84.2703,81.2324 76,114.5C 70.683,147.93 67.683,181.597 67,215.5C 66.0899,263.519 66.5899,311.519 68.5,359.5C 67.6981,358.048 67.1981,356.382 67,354.5C 66.8997,344.108 66.233,333.775 65,323.5C 64.6667,324.833 64.3333,326.167 64,327.5C 64.6298,288.861 64.6298,250.194 64,211.5C 63.0071,207.558 62.3404,203.558 62,199.5C 61.172,210.136 60.672,210.136 60.5,199.5C 60.6498,194.775 61.6498,190.275 63.5,186C 62.1165,182.633 61.2832,179.133 61,175.5C 60,174.833 59,174.167 58,173.5C 57.5017,176.817 57.335,180.15 57.5,183.5C 58.5,183.5 59.5,183.5 60.5,183.5C 58.4437,187.88 57.4437,193.214 57.5,199.5C 58.174,204.853 58.8407,210.186 59.5,215.5C 58.1667,215.5 56.8333,215.5 55.5,215.5C 54.2947,260.809 54.2947,306.143 55.5,351.5C 54.6733,346.349 54.1733,341.016 54,335.5C 53.3333,290.167 53.3333,244.833 54,199.5C 55.2143,171.07 57.5476,142.736 61,114.5C 63.511,92.6434 73.011,74.4767 89.5,60C 93.1807,59.1278 96.1807,57.2945 98.5,54.5C 111.458,48.638 125.124,45.3047 139.5,44.5C 156.628,42.4884 173.961,40.9884 191.5,40C 247.499,38.0952 303.499,38.0952 359.5,40C 378.2,41.3353 396.867,43.002 415.5,45C 421.546,46.1189 427.546,47.4522 433.5,49C 438.649,50.4115 443.316,52.5782 447.5,55.5 Z"/></g>
<g><path style="opacity:0.996" fill="#42a362" d="M 139.5,44.5 C 161.17,43.6222 182.836,42.4555 204.5,41C 237.5,40.3333 270.5,40.3333 303.5,41C 311.554,41.84 319.554,43.0067 327.5,44.5C 324.893,45.3184 322.226,45.8184 319.5,46C 330.385,45.8562 341.051,46.8562 351.5,49C 348.237,49.0645 345.237,49.8978 342.5,51.5C 295.532,50.1911 248.532,50.1911 201.5,51.5C 199.5,51.3333 197.5,51.1667 195.5,51C 202.155,50.2132 208.821,49.5466 215.5,49C 208.869,47.6768 202.203,47.8435 195.5,49.5C 194.167,49.1667 192.833,48.8333 191.5,48.5C 193.991,47.4593 193.991,46.6259 191.5,46C 189.473,45.5022 187.473,45.6689 185.5,46.5C 182.349,44.7113 179.016,44.2113 175.5,45C 178.308,45.598 180.808,46.7647 183,48.5C 185.443,47.7147 187.943,47.8814 190.5,49C 188.431,49.3242 188.098,50.1575 189.5,51.5C 173.438,52.6701 157.438,54.3368 141.5,56.5C 136.792,56.0397 132.126,55.373 127.5,54.5C 127.281,53.325 127.614,52.325 128.5,51.5C 130.225,50.9851 131.892,50.3184 133.5,49.5C 132.5,48.6667 131.5,47.8333 130.5,47C 133.797,46.7963 136.797,45.963 139.5,44.5 Z"/></g>
<g><path style="opacity:0.004" fill="#fefffe" d="M 108.5,48.5 C 107.448,48.6495 106.448,48.4828 105.5,48C 106.749,47.2599 107.749,47.4265 108.5,48.5 Z"/></g>
<g><path style="opacity:0.004" fill="#fefffe" d="M 103.5,48.5 C 104.833,49.1667 104.833,49.1667 103.5,48.5 Z"/></g>
<g><path style="opacity:0.004" fill="#fefffe" d="M 103.5,49.5 C 103.5,49.8333 103.5,50.1667 103.5,50.5C 102.508,50.3284 101.842,50.6618 101.5,51.5C 100.957,51.44 100.624,51.1067 100.5,50.5C 101.325,49.6143 102.325,49.281 103.5,49.5 Z"/></g>
<g><path style="opacity:0.129" fill="#c6e3cf" d="M 320.5,53.5 C 320.5,53.1667 320.5,52.8333 320.5,52.5C 346.869,53.208 373.203,54.5414 399.5,56.5C 404.856,57.7414 410.189,59.0747 415.5,60.5C 414.167,60.5 412.833,60.5 411.5,60.5C 396.967,59.1107 382.3,57.444 367.5,55.5C 364.58,56.3823 361.747,56.7156 359,56.5C 357.775,56.1377 356.609,55.6377 355.5,55C 343.826,54.5664 332.16,54.0664 320.5,53.5 Z"/></g>
<g><path style="opacity:0.007" fill="#eff9f2" d="M 450.5,54.5 C 451.209,53.596 452.209,53.2627 453.5,53.5C 453.5,54.5 453.5,55.5 453.5,56.5C 456.187,56.3415 458.52,57.1748 460.5,59C 461.833,59.6667 461.833,60.3333 460.5,61C 462.869,61.5359 464.869,62.7026 466.5,64.5C 467.492,66.8072 468.825,68.8072 470.5,70.5C 473.068,72.081 474.401,74.4143 474.5,77.5C 472.5,75.5 470.5,73.5 468.5,71.5C 463.293,65.237 457.293,59.9037 450.5,55.5C 453.167,55.1667 453.167,54.8333 450.5,54.5 Z"/></g>
<g><path style="opacity:0.141" fill="#f6fcf8" d="M 411.5,60.5 C 412.833,60.5 414.167,60.5 415.5,60.5C 451.019,68.5365 470.519,90.8698 474,127.5C 477.827,166.746 479.994,206.079 480.5,245.5C 481.422,291.584 479.922,337.584 476,383.5C 473.728,401.144 468.561,417.811 460.5,433.5C 454.373,441.461 447.373,448.627 439.5,455C 422.019,464.034 403.352,469.034 383.5,470C 316.859,474.045 250.193,474.545 183.5,471.5C 182.5,470.833 181.5,470.167 180.5,469.5C 181.822,469.67 182.989,469.337 184,468.5C 231.761,472.137 279.594,472.47 327.5,469.5C 353.9,469.024 380.066,466.358 406,461.5C 425.007,456.168 440.674,445.834 453,430.5C 462.252,414.744 467.919,397.744 470,379.5C 478.431,288.057 476.598,196.891 464.5,106C 462.879,102.291 461.379,98.4577 460,94.5C 458.786,92.9512 457.286,91.7845 455.5,91C 455.833,90.6667 456.167,90.3333 456.5,90C 449.72,80.5621 441.053,73.2288 430.5,68C 423.73,66.3081 417.064,64.3081 410.5,62C 411.056,61.6174 411.389,61.1174 411.5,60.5 Z"/></g>
<g><path style="opacity:0.004" fill="#fefffe" d="M 470.5,70.5 C 470.369,69.7611 470.536,69.0944 471,68.5C 471.692,69.4368 471.525,70.1034 470.5,70.5 Z"/></g>
<g><path style="opacity:0.196" fill="#d7eedf" d="M 474.5,77.5 C 477.207,80.2466 478.873,83.5799 479.5,87.5C 476.769,84.7049 475.102,81.3716 474.5,77.5 Z"/></g>
<g><path style="opacity:0.004" fill="#fefffe" d="M 480.5,86.5 C 481.833,87.1667 481.833,87.1667 480.5,86.5 Z"/></g>
<g><path style="opacity:0.078" fill="#d9eedd" d="M 479.5,87.5 C 479.833,87.5 480.167,87.5 480.5,87.5C 482.147,92.7559 483.481,98.0893 484.5,103.5C 482.219,98.3804 480.552,93.0471 479.5,87.5 Z"/></g>
<g><path style="opacity:0.951" fill="#6aac7f" d="M 468.5,71.5 C 470.5,73.5 472.5,75.5 474.5,77.5C 475.102,81.3716 476.769,84.7049 479.5,87.5C 480.552,93.0471 482.219,98.3804 484.5,103.5C 486.475,110.23 487.642,117.23 488,124.5C 489.244,141.5 490.41,158.5 491.5,175.5C 491.584,187.02 492.251,198.354 493.5,209.5C 494.407,217.792 494.74,226.125 494.5,234.5C 493.732,233.737 493.232,232.737 493,231.5C 491.162,204.214 489.495,176.88 488,149.5C 486.904,147.111 486.071,144.611 485.5,142C 487.261,135.94 486.761,129.774 484,123.5C 483.667,124.833 483.333,126.167 483,127.5C 482.294,125.029 482.627,122.695 484,120.5C 484.667,116.167 484.667,111.833 484,107.5C 481.462,101.177 479.296,94.6766 477.5,88C 474.798,85.4073 473.132,82.2407 472.5,78.5C 471.914,78.7093 471.414,79.0426 471,79.5C 470.725,76.5877 469.891,73.921 468.5,71.5 Z"/></g>
<g><path style="opacity:0.014" fill="#e5f5eb" d="M 98.5,54.5 C 96.1807,57.2945 93.1807,59.1278 89.5,60C 73.011,74.4767 63.511,92.6434 61,114.5C 57.5476,142.736 55.2143,171.07 54,199.5C 53.3333,244.833 53.3333,290.167 54,335.5C 54.1733,341.016 54.6733,346.349 55.5,351.5C 55.5139,378.4 59.3473,404.733 67,430.5C 70.4836,437.466 74.4836,444.132 79,450.5C 84.5195,457.248 90.6862,463.248 97.5,468.5C 95.4496,468.039 93.4496,467.372 91.5,466.5C 89.0562,464.105 86.3895,461.938 83.5,460C 77.2197,452.381 71.7197,444.215 67,435.5C 63.7907,425.615 60.7907,415.282 58,404.5C 54.7443,380.943 52.7443,357.276 52,333.5C 49.2293,263.39 51.2293,193.39 58,123.5C 59.9777,109.142 63.311,95.4755 68,82.5C 74.2292,70.1027 83.3959,60.436 95.5,53.5C 96.4168,54.1272 97.4168,54.4606 98.5,54.5 Z"/></g>
<g><path style="opacity:0.996" fill="#44a263" d="M 419.5,141.5 C 419.343,142.873 419.51,144.207 420,145.5C 421.082,147.618 422.249,149.618 423.5,151.5C 424.434,152.568 424.768,153.901 424.5,155.5C 424.666,161.509 424.499,167.509 424,173.5C 410.615,184.274 395.448,191.441 378.5,195C 373.511,195.499 368.511,195.666 363.5,195.5C 363.966,250.192 363.466,304.859 362,359.5C 358.746,377.585 347.912,386.919 329.5,387.5C 319.62,388.14 309.953,387.14 300.5,384.5C 292.389,381.554 287.222,375.887 285,367.5C 281.032,345.673 289.865,333.34 311.5,330.5C 324.438,330.76 337.271,330.093 350,328.5C 350.831,284.331 350.665,240.331 349.5,196.5C 308.961,195.17 268.294,195.17 227.5,196.5C 226.5,251.496 226.167,306.496 226.5,361.5C 223.81,376.857 214.81,385.857 199.5,388.5C 189.815,388.578 180.148,388.245 170.5,387.5C 156.331,383.06 149.331,373.227 149.5,358C 149.947,342.884 157.613,333.884 172.5,331C 186.711,329.981 200.877,329.147 215,328.5C 215.667,285.833 215.667,243.167 215,200.5C 182.753,206.37 158.42,223.703 142,252.5C 141.377,232.796 142.044,213.129 144,193.5C 162.018,174.405 183.852,161.905 209.5,156C 227.47,154.525 245.47,153.525 263.5,153C 297.18,152.845 330.847,152.179 364.5,151C 372.938,149.521 380.938,146.854 388.5,143C 395.54,139.295 402.04,134.795 408,129.5C 412.042,133.374 415.876,137.374 419.5,141.5 Z"/></g>
<g><path style="opacity:0.006" fill="#e4f2e8" d="M 419.5,141.5 C 420.397,142.598 421.23,142.598 422,141.5C 424.743,144.479 425.243,147.813 423.5,151.5C 422.249,149.618 421.082,147.618 420,145.5C 419.51,144.207 419.343,142.873 419.5,141.5 Z"/></g>
<g><path style="opacity:0.004" fill="#fefffe" d="M 199.5,155.5 C 199.5,155.833 199.5,156.167 199.5,156.5C 198.5,156.5 197.5,156.5 196.5,156.5C 197.105,154.519 198.105,154.185 199.5,155.5 Z"/></g>
<g><path style="opacity:0.996" fill="#47a365" d="M 447.5,55.5 C 448.5,55.5 449.5,55.5 450.5,55.5C 457.293,59.9037 463.293,65.237 468.5,71.5C 469.891,73.921 470.725,76.5877 471,79.5C 471.414,79.0426 471.914,78.7093 472.5,78.5C 473.132,82.2407 474.798,85.4073 477.5,88C 479.296,94.6766 481.462,101.177 484,107.5C 484.667,111.833 484.667,116.167 484,120.5C 482.627,122.695 482.294,125.029 483,127.5C 483.333,126.167 483.667,124.833 484,123.5C 486.761,129.774 487.261,135.94 485.5,142C 486.071,144.611 486.904,147.111 488,149.5C 489.495,176.88 491.162,204.214 493,231.5C 493.232,232.737 493.732,233.737 494.5,234.5C 494.43,264.718 494.43,294.884 494.5,325C 493.47,342.861 492.137,360.694 490.5,378.5C 488.502,382.933 486.002,387.266 483,391.5C 481.603,390.774 480.769,389.607 480.5,388C 481.669,383.821 481.669,379.654 480.5,375.5C 479.686,377.766 479.186,380.1 479,382.5C 478.833,380.833 478.667,379.167 478.5,377.5C 479.565,370.675 480.565,363.842 481.5,357C 481.599,319.679 481.265,282.512 480.5,245.5C 479.994,206.079 477.827,166.746 474,127.5C 470.519,90.8698 451.019,68.5365 415.5,60.5C 410.189,59.0747 404.856,57.7414 399.5,56.5C 393.242,54.7001 386.575,53.8667 379.5,54C 376.879,53.0615 374.212,52.2281 371.5,51.5C 373.929,50.1449 375.262,48.4783 375.5,46.5C 373.187,45.7267 370.854,45.0601 368.5,44.5C 365.869,45.7243 363.035,46.391 360,46.5C 349.212,44.7086 338.379,43.2086 327.5,42C 357.833,41.7893 387.833,43.456 417.5,47C 415.5,47.3333 413.5,47.6667 411.5,48C 411.833,48.3333 412.167,48.6667 412.5,49C 415.133,48.7468 417.8,48.7468 420.5,49C 424.43,52.0397 428.097,54.373 431.5,56C 434.167,56.6667 436.833,56.6667 439.5,56C 436.79,54.3324 436.957,53.499 440,53.5C 442.472,54.3219 444.972,54.9886 447.5,55.5 Z"/></g>
<g><path style="opacity:0.051" fill="#d0ebdd" d="M 491.5,175.5 C 493.079,186.628 493.746,197.961 493.5,209.5C 492.251,198.354 491.584,187.02 491.5,175.5 Z"/></g>
<g><path style="opacity:0.057" fill="#f8fdf9" d="M 254.5,197.5 C 286.39,196.852 318.057,197.519 349.5,199.5C 349.667,242.168 349.5,284.835 349,327.5C 336.404,328.52 323.904,329.52 311.5,330.5C 289.865,333.34 281.032,345.673 285,367.5C 287.222,375.887 292.389,381.554 300.5,384.5C 302.072,385.687 303.739,386.687 305.5,387.5C 290.553,386.052 282.387,377.719 281,362.5C 278.908,340.459 288.741,328.292 310.5,326C 319.5,325.667 328.5,325.333 337.5,325C 340.911,324.883 343.411,323.383 345,320.5C 345.935,313.198 346.435,305.864 346.5,298.5C 345.48,265.833 345.314,233.166 346,200.5C 315.411,199.183 284.911,198.183 254.5,197.5 Z"/></g>
<g><path style="opacity:0.009" fill="#eef8f1" d="M 419.5,141.5 C 415.876,137.374 412.042,133.374 408,129.5C 402.04,134.795 395.54,139.295 388.5,143C 380.938,146.854 372.938,149.521 364.5,151C 330.847,152.179 297.18,152.845 263.5,153C 245.47,153.525 227.47,154.525 209.5,156C 183.852,161.905 162.018,174.405 144,193.5C 142.044,213.129 141.377,232.796 142,252.5C 158.42,223.703 182.753,206.37 215,200.5C 215.667,243.167 215.667,285.833 215,328.5C 200.877,329.147 186.711,329.981 172.5,331C 157.613,333.884 149.947,342.884 149.5,358C 149.331,373.227 156.331,383.06 170.5,387.5C 162.564,386.949 156.064,383.615 151,377.5C 148.845,370.161 147.012,362.828 145.5,355.5C 146.78,349.255 148.947,343.255 152,337.5C 156.129,332.608 161.129,329.942 167,329.5C 171.369,328.03 175.869,327.03 180.5,326.5C 181.167,326.833 181.833,327.167 182.5,327.5C 192.285,325.832 201.952,324.832 211.5,324.5C 211.333,291.832 211.5,259.165 212,226.5C 212.598,221.464 213.098,216.631 213.5,212C 212.045,209.752 211.212,207.252 211,204.5C 206.867,205.291 202.7,206.124 198.5,207C 184.592,214.054 171.759,222.554 160,232.5C 154.738,241.09 148.738,249.09 142,256.5C 140.989,255.663 139.822,255.33 138.5,255.5C 138.244,237.737 139.244,220.07 141.5,202.5C 140.98,198.32 141.647,194.153 143.5,190C 147.632,186.033 151.632,181.866 155.5,177.5C 161.946,173.563 168.279,169.397 174.5,165C 181.548,161.305 188.881,158.472 196.5,156.5C 197.5,157.833 198.5,157.833 199.5,156.5C 204.833,156.167 204.833,155.833 199.5,155.5C 203.371,153.17 207.538,152.837 212,154.5C 227.079,152.267 242.245,151.101 257.5,151C 292.518,150.906 327.518,150.239 362.5,149C 366.266,148.595 369.933,147.761 373.5,146.5C 376.457,144.188 379.791,142.688 383.5,142C 391.014,135.825 399.014,130.325 407.5,125.5C 410.076,126.883 409.742,127.717 406.5,128C 413.699,128.695 418.366,132.529 420.5,139.5C 420.137,140.183 419.804,140.85 419.5,141.5 Z"/></g>
<g><path style="opacity:0.007" fill="#f5fbf7" d="M 424.5,155.5 C 425.201,162.037 425.868,168.703 426.5,175.5C 425.018,177.483 423.351,179.316 421.5,181C 416.359,182.802 411.692,185.468 407.5,189C 400.606,192.085 393.606,194.085 386.5,195C 387.5,195.333 388.5,195.667 389.5,196C 382.298,196.144 374.965,196.811 367.5,198C 368.5,198.333 369.5,198.667 370.5,199C 368.324,199.163 366.491,199.996 365,201.5C 364.667,252.833 364.333,304.167 364,355.5C 363.65,377.485 353.15,388.985 332.5,390C 332,390.167 331.5,390.333 331,390.5C 324.524,389.763 318.024,389.596 311.5,390C 313.382,389.802 315.048,389.302 316.5,388.5C 321.032,388.818 325.366,388.485 329.5,387.5C 347.912,386.919 358.746,377.585 362,359.5C 363.466,304.859 363.966,250.192 363.5,195.5C 368.511,195.666 373.511,195.499 378.5,195C 395.448,191.441 410.615,184.274 424,173.5C 424.499,167.509 424.666,161.509 424.5,155.5 Z"/></g>
<g><path style="opacity:0.955" fill="#509b69" d="M 349.5,196.5 C 309.261,196.17 269.094,196.503 229,197.5C 228.816,251.522 228.316,305.522 227.5,359.5C 227.672,360.492 227.338,361.158 226.5,361.5C 226.167,306.496 226.5,251.496 227.5,196.5C 268.294,195.17 308.961,195.17 349.5,196.5 Z"/></g>
<g><path style="opacity:0.945" fill="#579a6d" d="M 349.5,196.5 C 350.665,240.331 350.831,284.331 350,328.5C 337.271,330.093 324.438,330.76 311.5,330.5C 323.904,329.52 336.404,328.52 349,327.5C 349.5,284.835 349.667,242.168 349.5,199.5C 349.5,198.5 349.5,197.5 349.5,196.5 Z"/></g>
<g><path style="opacity:0.035" fill="#ccf9de" d="M 349.5,196.5 C 349.5,197.5 349.5,198.5 349.5,199.5C 318.057,197.519 286.39,196.852 254.5,197.5C 248.404,197.704 242.404,197.704 236.5,197.5C 235.12,198.976 233.453,199.976 231.5,200.5C 231.167,202.5 230.833,204.5 230.5,206.5C 229.169,250.667 229.169,294.834 230.5,339C 229.97,345.862 229.303,352.696 228.5,359.5C 228.167,359.5 227.833,359.5 227.5,359.5C 228.316,305.522 228.816,251.522 229,197.5C 269.094,196.503 309.261,196.17 349.5,196.5 Z"/></g>
<g><path style="opacity:0.007" fill="#f1faf4" d="M 227.5,359.5 C 227.833,359.5 228.167,359.5 228.5,359.5C 229.991,363.561 229.824,367.561 228,371.5C 225.667,374.833 223.333,378.167 221,381.5C 214.665,386.944 207.498,389.278 199.5,388.5C 214.81,385.857 223.81,376.857 226.5,361.5C 227.338,361.158 227.672,360.492 227.5,359.5 Z"/></g>
<g><path style="opacity:0.996" fill="#55a56e" d="M 480.5,245.5 C 481.265,282.512 481.599,319.679 481.5,357C 480.565,363.842 479.565,370.675 478.5,377.5C 478.667,379.167 478.833,380.833 479,382.5C 479.186,380.1 479.686,377.766 480.5,375.5C 481.669,379.654 481.669,383.821 480.5,388C 480.769,389.607 481.603,390.774 483,391.5C 486.002,387.266 488.502,382.933 490.5,378.5C 489.378,395.397 486.045,411.731 480.5,427.5C 480.075,424.591 480.075,421.758 480.5,419C 482.616,417.829 483.282,416.329 482.5,414.5C 485.111,410.002 484.944,405.669 482,401.5C 481.667,398.167 481.333,394.833 481,391.5C 480.333,392.167 479.667,392.833 479,393.5C 478.808,391.423 478.308,389.423 477.5,387.5C 474.21,399.227 472.71,411.227 473,423.5C 471.684,426.028 470.517,426.028 469.5,423.5C 465.515,426.13 463.015,429.797 462,434.5C 461.617,433.944 461.117,433.611 460.5,433.5C 468.561,417.811 473.728,401.144 476,383.5C 479.922,337.584 481.422,291.584 480.5,245.5 Z"/></g>
<g><path style="opacity:0.18" fill="#a2cbae" d="M 300.5,384.5 C 309.953,387.14 319.62,388.14 329.5,387.5C 325.366,388.485 321.032,388.818 316.5,388.5C 312.785,388.577 309.119,388.244 305.5,387.5C 303.739,386.687 302.072,385.687 300.5,384.5 Z"/></g>
<g><path style="opacity:0.018" fill="#ebf8f0" d="M 320.5,52.5 C 320.5,52.8333 320.5,53.1667 320.5,53.5C 278.823,53.22 237.156,53.72 195.5,55C 172.974,55.5526 150.64,57.8859 128.5,62C 119.463,65.5455 110.13,70.5455 100.5,77C 84.732,91.5802 76.232,109.747 75,131.5C 68.8122,196.023 66.8122,260.69 69,325.5C 69.6389,352.868 72.6389,379.868 78,406.5C 81.4633,413.635 84.4633,420.968 87,428.5C 91.2353,434.519 95.9019,440.186 101,445.5C 105.602,448.266 109.768,451.599 113.5,455.5C 120.989,458.948 129.322,462.114 138.5,465C 152.461,466.963 166.461,468.463 180.5,469.5C 181.5,470.167 182.5,470.833 183.5,471.5C 162.332,471.418 141.665,468.251 121.5,462C 102.607,453.774 89.1071,440.274 81,421.5C 74.3185,401.259 70.1519,380.592 68.5,359.5C 66.5899,311.519 66.0899,263.519 67,215.5C 67.683,181.597 70.683,147.93 76,114.5C 84.2703,81.2324 105.437,62.399 139.5,58C 163.435,55.4352 187.435,53.7685 211.5,53C 247.832,52.5 284.165,52.3333 320.5,52.5 Z"/></g>
<g><path style="opacity:0.005" fill="#f1f9f4" d="M 469.5,449.5 C 466.328,457.53 460.995,464.03 453.5,469C 447.798,472.554 441.798,475.387 435.5,477.5C 434.558,477.392 433.725,477.059 433,476.5C 431.121,478.195 428.954,479.528 426.5,480.5C 425.558,480.392 424.725,480.059 424,479.5C 419.935,480.729 415.935,482.062 412,483.5C 411,483.167 410,482.833 409,482.5C 379.95,485.934 350.783,487.601 321.5,487.5C 321.5,487.167 321.5,486.833 321.5,486.5C 345.073,486.543 368.406,485.209 391.5,482.5C 414.065,482.843 434.732,477.01 453.5,465C 458.758,459.579 464.092,454.412 469.5,449.5 Z"/></g>
<g><path style="opacity:0.996" fill="#45a263" d="M 68.5,359.5 C 70.1519,380.592 74.3185,401.259 81,421.5C 89.1071,440.274 102.607,453.774 121.5,462C 141.665,468.251 162.332,471.418 183.5,471.5C 250.193,474.545 316.859,474.045 383.5,470C 403.352,469.034 422.019,464.034 439.5,455C 447.373,448.627 454.373,441.461 460.5,433.5C 461.117,433.611 461.617,433.944 462,434.5C 463.015,429.797 465.515,426.13 469.5,423.5C 470.517,426.028 471.684,426.028 473,423.5C 472.71,411.227 474.21,399.227 477.5,387.5C 478.308,389.423 478.808,391.423 479,393.5C 479.667,392.833 480.333,392.167 481,391.5C 481.333,394.833 481.667,398.167 482,401.5C 484.944,405.669 485.111,410.002 482.5,414.5C 483.282,416.329 482.616,417.829 480.5,419C 480.075,421.758 480.075,424.591 480.5,427.5C 478.395,435.709 474.729,443.043 469.5,449.5C 464.092,454.412 458.758,459.579 453.5,465C 434.732,477.01 414.065,482.843 391.5,482.5C 316.877,486.053 242.21,486.387 167.5,483.5C 156.759,483.657 146.092,482.824 135.5,481C 125.635,479.055 115.968,476.555 106.5,473.5C 103.992,471.076 100.992,469.41 97.5,468.5C 90.6862,463.248 84.5195,457.248 79,450.5C 74.4836,444.132 70.4836,437.466 67,430.5C 59.3473,404.733 55.5139,378.4 55.5,351.5C 54.2947,306.143 54.2947,260.809 55.5,215.5C 56.8333,215.5 58.1667,215.5 59.5,215.5C 58.8407,210.186 58.174,204.853 57.5,199.5C 57.4437,193.214 58.4437,187.88 60.5,183.5C 59.5,183.5 58.5,183.5 57.5,183.5C 57.335,180.15 57.5017,176.817 58,173.5C 59,174.167 60,174.833 61,175.5C 61.2832,179.133 62.1165,182.633 63.5,186C 61.6498,190.275 60.6498,194.775 60.5,199.5C 60.672,210.136 61.172,210.136 62,199.5C 62.3404,203.558 63.0071,207.558 64,211.5C 64.6298,250.194 64.6298,288.861 64,327.5C 64.3333,326.167 64.6667,324.833 65,323.5C 66.233,333.775 66.8997,344.108 67,354.5C 67.1981,356.382 67.6981,358.048 68.5,359.5 Z"/></g>
<g><path style="opacity:0.007" fill="#f1fcf5" d="M 170.5,387.5 C 180.148,388.245 189.815,388.578 199.5,388.5C 200.263,389.268 201.263,389.768 202.5,390C 201.333,390.167 200.167,390.333 199,390.5C 193.686,389.494 188.352,389.494 183,390.5C 178.408,390.759 174.242,389.759 170.5,387.5 Z"/></g>
<g><path style="opacity:0.009" fill="#f5fcf7" d="M 97.5,468.5 C 100.992,469.41 103.992,471.076 106.5,473.5C 102.756,473.072 99.756,471.405 97.5,468.5 Z"/></g>
<g><path style="opacity:0.075" fill="#dff5e5" d="M 106.5,473.5 C 115.968,476.555 125.635,479.055 135.5,481C 146.092,482.824 156.759,483.657 167.5,483.5C 176.645,484.746 185.978,485.58 195.5,486C 237.499,486.5 279.499,486.667 321.5,486.5C 321.5,486.833 321.5,487.167 321.5,487.5C 266.468,488.931 211.468,488.098 156.5,485C 146.776,484.076 137.11,482.743 127.5,481C 120.007,479.554 113.007,477.054 106.5,473.5 Z"/></g>
<g><path style="opacity:0.292" fill="#5b9d71" d="M 391.5,482.5 C 368.406,485.209 345.073,486.543 321.5,486.5C 279.499,486.667 237.499,486.5 195.5,486C 185.978,485.58 176.645,484.746 167.5,483.5C 242.21,486.387 316.877,486.053 391.5,482.5 Z"/></g>
</svg>
